HIERARCHY
ROOT Hips
{
	OFFSET 0.000000 71.427986 0.000000
	CHANNELS 6 Xposition Yposition Zposition Xrotation Yrotation Zrotation
	JOINT Pelvis
	{
		OFFSET 0.000000 0.000000 0.000000
		CHANNELS 3 Xrotation Yrotation Zrotation
		JOINT LeftUpLeg
		{
			OFFSET 6.797100 -2.508499 -1.318700
			CHANNELS 3 Xrotation Yrotation Zrotation
			JOINT LeftLeg
			{
				OFFSET 0.069008 -29.241863 0.690200
				CHANNELS 3 Xrotation Yrotation Zrotation
				JOINT LeftFoot
				{
					OFFSET -0.069008 -29.568123 -0.266800
					CHANNELS 3 Xrotation Yrotation Zrotation
					End Site
					{
						OFFSET 0 0 0
					}
				}
			}
		}
	}
}
MOTION
Frames: 40
Frame Time: 0.01666700
0.088082 70.510933 1.307248 0.000000 0.000000 0.000000 -9.642626 5.114245 4.568447 0.000000 0.000000 0.000000 -14.988106 6.305713 -1.256586 52.535692 -5.613107 -0.829015 
0.177962 70.540619 2.310784 0.000000 0.000000 0.000000 -9.486501 4.458409 4.635011 -0.000001 0.000000 0.000000 -15.613835 6.573748 -2.816494 48.235544 -6.022047 -0.828269 
0.277743 70.542618 3.408431 0.000000 0.000000 0.000000 -9.306646 3.870935 4.617143 0.000000 0.000000 0.000000 -16.839884 6.416147 -3.701490 44.394700 -5.902786 -0.793448 
0.389695 70.575775 4.635486 0.000000 0.000000 0.000000 -9.112329 3.215506 4.612857 0.000000 0.000000 0.000000 -17.499346 6.145575 -4.527266 38.759075 -5.769709 -0.788247 
0.507382 70.584641 5.933236 0.000000 0.000000 0.000000 -8.910421 2.621179 4.549650 0.000000 0.000000 0.000000 -17.815707 5.696434 -5.370892 33.207442 -4.878515 -0.720187 
0.628019 70.569000 7.290984 0.000000 0.000000 0.000000 -8.712945 2.086342 4.441003 0.000000 0.000000 0.000000 -17.889336 5.059830 -6.052725 27.538630 -3.280486 -0.559841 
0.750103 70.518303 8.709091 0.000000 0.000000 0.000000 -8.527478 1.618304 4.294757 0.000001 0.000000 0.000000 -17.762768 4.290900 -6.598568 21.930717 -1.059165 -0.280862 
0.872680 70.426491 10.183899 0.000000 0.000000 0.000000 -8.361706 1.224484 4.117584 0.000000 0.000000 0.000000 -17.439667 3.464214 -7.065074 16.541776 1.506372 0.123902 
0.995745 70.291153 11.711158 0.000000 0.000000 0.000000 -8.222082 0.913463 3.905885 0.000000 0.000000 0.000000 -16.965411 2.655744 -7.470852 11.600168 4.008262 0.612551 
1.119274 70.109581 13.282437 0.000000 0.000000 0.000000 -8.112949 0.692293 3.683541 -0.000001 0.000000 0.000000 -16.571886 1.956044 -7.834358 7.682076 6.072842 1.120321 
1.243820 69.875999 14.893216 0.000000 0.000000 0.000000 -8.036495 0.568437 3.467743 0.000001 0.000000 0.000000 -17.147627 1.521434 -8.145392 6.642114 7.577949 1.589532 
1.370569 69.602615 16.419315 0.000000 0.000000 0.000000 -7.992722 0.544762 3.300161 0.000000 0.000000 0.000000 -18.349011 1.326357 -8.442518 7.601028 8.507801 1.985451 
1.502865 69.316376 17.807987 0.000000 0.000000 0.000000 -7.980213 0.622431 3.223155 0.000001 0.000000 0.000000 -19.269742 1.244500 -8.752981 8.623678 8.816264 2.297958 
1.645059 69.033203 19.165234 0.000000 0.000000 0.000000 -7.996954 0.804569 3.246025 -0.000001 0.000000 0.000000 -19.986457 1.260714 -9.063438 9.956945 8.684365 2.533249 
1.801476 68.767189 20.597183 0.000000 0.000000 0.000000 -8.040905 1.095032 3.376240 0.000000 0.000000 0.000000 -20.539357 1.344843 -9.382286 11.741292 8.333770 2.702927 
1.975102 68.528557 22.210440 0.000000 0.000000 0.000000 -8.110520 1.498383 3.613235 -0.000001 0.000000 0.000000 -20.934316 1.458391 -9.731296 14.051997 7.944084 2.817951 
2.167964 68.324570 23.938749 0.000000 0.000000 0.000000 -8.204959 2.018127 3.971315 0.000000 0.000000 0.000000 -20.900412 1.524352 -10.165123 16.126689 7.549041 2.887451 
2.379705 68.156105 25.640718 0.000000 0.000000 0.000000 -8.324207 2.657946 4.457618 0.000000 0.000000 0.000000 -20.335729 1.495463 -10.738812 17.426673 7.170014 2.926916 
2.607274 68.020248 27.308525 0.000000 0.000000 0.000000 -8.468956 3.424927 5.055574 0.000001 -0.000001 -0.000000 -19.428829 1.379716 -11.472922 18.260754 6.868073 2.951022 
2.842395 67.913666 28.940172 0.000000 0.000000 0.000000 -8.639999 4.327097 5.736016 0.000000 0.000000 0.000000 -18.351140 1.196045 -12.350233 18.933671 6.662129 2.970286 
3.079580 67.827751 30.533653 0.000000 0.000000 0.000000 -8.837498 5.372383 6.457912 0.000000 0.000000 0.000000 -17.267818 0.977904 -13.320862 19.743365 6.551858 2.991970 
3.311409 67.765633 32.089230 0.000000 0.000000 0.000000 -9.060669 6.570521 7.192166 0.000000 0.000000 0.000000 -16.238203 0.752111 -14.322546 20.785717 6.523618 3.016664 
3.531313 67.731133 33.611115 0.000000 0.000000 0.000000 -9.307251 7.929678 7.900666 0.000000 0.000000 0.000000 -15.271662 0.537730 -15.270943 22.057601 6.559717 3.042953 
3.734026 67.728828 35.103851 0.000000 0.000000 0.000000 -9.573470 9.455283 8.549783 -0.000001 0.000000 0.000001 -14.330135 0.340224 -16.081014 23.454654 6.636692 3.065740 
3.915498 67.760857 36.570534 0.000000 0.000000 0.000000 -9.854111 11.148140 9.116697 0.000000 0.000001 0.000001 -13.360856 0.155167 -16.681746 24.833847 6.726927 3.076901 
4.072783 67.825645 38.012375 0.000000 0.000000 0.000000 -10.142997 13.003340 9.591600 0.000000 0.000000 0.000000 -12.322441 -0.024763 -17.026004 26.068122 6.801792 3.068849 
4.204267 67.918701 39.429363 0.000000 0.000000 0.000000 -10.433618 15.010521 9.975927 0.000001 -0.000000 0.000001 -11.196254 -0.204940 -17.093335 27.074013 6.833143 3.037673 
4.309935 68.034454 40.821083 0.000000 0.000000 0.000000 -10.719974 17.154730 10.279366 0.000000 0.000001 0.000000 -9.986503 -0.387741 -16.886503 27.816003 6.791556 2.982731 
4.391517 68.168205 42.187042 0.000000 0.000000 0.000000 -10.997270 19.418053 10.516427 0.000000 0.000002 0.000000 -8.711883 -0.574598 -16.423909 28.292131 6.640900 2.903378 
4.452304 68.316696 43.526432 0.000000 0.000000 0.000000 -11.262486 21.781147 10.704310 0.000000 0.000000 0.000000 -7.399704 -0.767016 -15.733003 28.522413 6.334512 2.796732 
4.496613 68.477356 44.837551 0.000000 0.000000 0.000000 -11.514694 24.224588 10.862329 0.000000 0.000000 0.000001 -6.078472 -0.966802 -14.846596 28.533433 5.815376 2.657142 
4.529127 68.647545 46.117737 0.000000 0.000000 0.000000 -11.755396 26.730179 11.011962 0.000000 0.000000 0.000000 -4.773188 -1.175743 -13.800860 28.349557 5.022421 2.477446 
4.554200 68.823586 47.363708 0.000000 0.000000 0.000000 -11.988835 29.281956 11.176780 0.000000 -0.000003 0.000000 -3.503032 -1.395187 -12.634481 27.989259 3.903965 2.251287 
4.575369 69.000961 48.572430 0.000000 0.000000 0.000000 -12.222148 31.866828 11.381630 0.000000 0.000000 0.000000 -2.280547 -1.626497 -11.386975 27.463808 2.436391 1.975338 
4.595186 69.175011 49.741852 0.000000 0.000000 0.000000 -12.465508 34.474865 11.650861 0.000000 0.000001 0.000001 -1.111148 -1.871937 -10.096199 26.777061 0.643702 1.651216 
4.615248 69.341789 50.870987 0.000000 0.000000 0.000000 -12.731882 37.099089 12.006468 0.000000 0.000001 0.000000 0.005550 -2.134619 -8.796217 25.927321 -1.390052 1.286790 
4.636265 69.498474 51.959797 0.000000 0.000000 0.000000 -13.036400 39.734638 12.466763 0.000000 0.000001 0.000000 1.072452 -2.417532 -7.516160 24.914266 -3.522390 0.897057 
4.658051 69.642906 53.008816 0.000000 0.000000 0.000000 -13.395420 42.378152 13.046163 -0.000001 -0.000001 0.000000 2.089974 -2.722012 -6.279735 23.749114 -5.574275 0.503706 
4.679532 69.773155 54.019089 0.000000 0.000000 0.000000 -13.825349 45.026852 13.755127 -0.000001 -0.000001 0.000000 3.053705 -3.047097 -5.103852 22.458577 -7.368615 0.132080 
4.698832 69.887383 54.992104 0.000000 0.000000 0.000000 -14.341692 47.678216 14.600516 0.000000 -0.000002 0.000000 3.955334 -3.389838 -3.996530 21.079608 -8.773480 -0.194507 
